# xmcd
#
# Track frame offsets: 
#        150
#        20285
#        31872
#        51712
#        72045
#        89125
#        108972
#        123187
#        144590
#        156607
#        174390
#        192630
#
# Disc length: 2674 seconds
#
# Revision: 2
# Processed by: cddbd v1.5.2PL0 Copyright (c) Steve Scherf et al.
# Submitted via: ExactAudioCopyFreeDBPlugin 1.0
#
DISCID=ac0a700c
DTITLE=Roy Rogers - Slide Zone
DYEAR=1994
DGENRE=Blues
TTITLE0=Get Back In Line
TTITLE1=Spent Money
TTITLE2=House Of Blue Dreams
TTITLE3=Lover's Moon
TTITLE4=Livin' On A Borrowed Time
TTITLE5=Ode To The Delta
TTITLE6=Not Fade Away
TTITLE7=Slide Zone
TTITLE8=Lookin' Up At The Downside
TTITLE9=Rough House
TTITLE10=Still A Long Way To Go
TTITLE11=Off The Cuff
EXTD=
EXTT0=
EXTT1=
EXTT2=
EXTT3=
EXTT4=
EXTT5=
EXTT6=
EXTT7=
EXTT8=
EXTT9=
EXTT10=
EXTT11=
PLAYORDER=
